<svg xmlns="http://www.w3.org/2000/svg" width="1600" height="900" viewBox="0 0 1600 900">
<defs><pattern id="g" width="80" height="80" patternUnits="userSpaceOnUse"><path d="M 80 0 L 0 0 0 80" fill="none" stroke="#9BA6A5" stroke-opacity="0.12"/></pattern></defs>
  <rect width="1600" height="900" fill="#080B12"/>
  <rect width="1600" height="900" fill="url(#g)"/><polyline points="180,788 304,819 428,481 552,490 676,787 800,672 924,424 1048,574 1172,859 1296,608 1420,452" fill="none" stroke="#B8F56A" stroke-width="3" stroke-opacity="0.9"/><circle cx="1378" cy="161" r="2.5858180159702897" fill="#7DE2D1" opacity="0.3447061415761709"/><circle cx="181" cy="376" r="2.8384533058851957" fill="#B8F56A" opacity="0.7117544430773706"/><circle cx="782" cy="242" r="4.502505075186491" fill="#B8F56A" opacity="0.6968870305689052"/><circle cx="1418" cy="264" r="2.3523343997076154" fill="#7DE2D1" opacity="0.6518125329865143"/><circle cx="410" cy="635" r="2.6757946992293" fill="#B8F56A" opacity="0.39850106691010295"/><circle cx="624" cy="211" r="5.256738242693245" fill="#B8F56A" opacity="0.3202653200831264"/><circle cx="440" cy="324" r="3.571606570854783" fill="#7DE2D1" opacity="0.7407724760239944"/><circle cx="1419" cy="515" r="2.218448644503951" fill="#B8F56A" opacity="0.7705138043500483"/><circle cx="1392" cy="593" r="2.2542114704847336" fill="#B8F56A" opacity="0.5726114229299128"/><circle cx="460" cy="550" r="3.0698519311845303" fill="#7DE2D1" opacity="0.5703644336434082"/><circle cx="616" cy="135" r="5.398779388517141" fill="#B8F56A" opacity="0.5908540078205988"/><circle cx="286" cy="335" r="3.000171440653503" fill="#B8F56A" opacity="0.4588301269803196"/><circle cx="244" cy="571" r="5.6793589340522885" fill="#7DE2D1" opacity="0.5110706911189482"/><circle cx="700" cy="595" r="5.154539265669882" fill="#B8F56A" opacity="0.30341637432575225"/><circle cx="392" cy="354" r="3.7892232993617654" fill="#B8F56A" opacity="0.44716225408483296"/><circle cx="1129" cy="488" r="4.646047115325928" fill="#7DE2D1" opacity="0.40378921031951903"/><circle cx="465" cy="227" r="4.933903503231704" fill="#B8F56A" opacity="0.6698747294256464"/><circle cx="916" cy="338" r="5.68878064583987" fill="#B8F56A" opacity="0.6892087346175686"/><circle cx="840" cy="287" r="4.35207705385983" fill="#7DE2D1" opacity="0.526903465227224"/><circle cx="213" cy="675" r="4.992863246239722" fill="#B8F56A" opacity="0.786115116509609"/><circle cx="532" cy="359" r="4.012742999941111" fill="#B8F56A" opacity="0.48600588769186287"/><circle cx="777" cy="381" r="4.136258092708886" fill="#7DE2D1" opacity="0.371758757927455"/><circle cx="1283" cy="541" r="4.356423040851951" fill="#B8F56A" opacity="0.46891351726371794"/><circle cx="394" cy="285" r="5.422403999604285" fill="#B8F56A" opacity="0.39123831894248723"/><circle cx="496" cy="144" r="5.919245815835893" fill="#7DE2D1" opacity="0.7356804335257039"/><circle cx="1209" cy="147" r="4.923876319080591" fill="#B8F56A" opacity="0.32235632156953214"/><text x="300" y="202" fill="#9BA6A5" font-size="44" font-family="DM Mono, monospace" opacity="0.5">def </text><text x="490" y="233" fill="#9BA6A5" font-size="44" font-family="DM Mono, monospace" opacity="0.5">()</text><text x="680" y="183" fill="#9BA6A5" font-size="44" font-family="DM Mono, monospace" opacity="0.5">:</text><text x="870" y="185" fill="#9BA6A5" font-size="44" font-family="DM Mono, monospace" opacity="0.5">_</text><text x="1060" y="160" fill="#9BA6A5" font-size="44" font-family="DM Mono, monospace" opacity="0.5">__</text><text x="1250" y="223" fill="#9BA6A5" font-size="44" font-family="DM Mono, monospace" opacity="0.5">-&gt;</text><text x="1440" y="207" fill="#9BA6A5" font-size="44" font-family="DM Mono, monospace" opacity="0.5">.py</text>

<!-- brand mark -->
<g>
  <rect x="86" y="72" width="56" height="56" rx="14" fill="#B8F56A"/>
  <text x="114" y="112" text-anchor="middle" font-family="Space Grotesk, sans-serif" font-size="30" font-weight="700" fill="#080B12">AH</text>
</g>

<!-- category + keyword meta -->
<text x="166" y="100" font-family="DM Mono, monospace" font-size="26" letter-spacing="6" fill="#9BA6A5" font-weight="300">PYTHON / PYTHON VS JAVA</text>

<!-- title block -->
<text x="86" y="660" font-family="Space Grotesk, sans-serif" font-size="78" font-weight="700" fill="#F3F6F4" letter-spacing="-2">Python</text>
<text x="86" y="756" font-family="Space Grotesk, sans-serif" font-size="78" font-weight="700" fill="#F3F6F4" letter-spacing="-2">vs</text>
<text x="86" y="852" font-family="Space Grotesk, sans-serif" font-size="78" font-weight="700" fill="#F3F6F4" letter-spacing="-2">Java:</text>
<text x="86" y="948" font-family="Space Grotesk, sans-serif" font-size="78" font-weight="700" fill="#F3F6F4" letter-spacing="-2">Which</text>
<text x="86" y="1044" font-family="Space Grotesk, sans-serif" font-size="78" font-weight="700" fill="#F3F6F4" letter-spacing="-2">Should<tspan fill="#B8F56A">.</tspan></text>

<!-- footer rule -->
<line x1="86" y1="826" x2="1514" y2="826" stroke="#9BA6A5" stroke-opacity="0.25" stroke-width="1.5"/>
<text x="86" y="862" font-family="DM Mono, monospace" font-size="22" letter-spacing="5" fill="#9BA6A5" font-weight="300">ABDUL HASEEB — DEVELOPER NOTEBOOK</text>
</svg>