<svg xmlns="http://www.w3.org/2000/svg" width="1600" height="900" viewBox="0 0 1600 900">
<defs><pattern id="g" width="80" height="80" patternUnits="userSpaceOnUse"><path d="M 80 0 L 0 0 0 80" fill="none" stroke="#9BA6A5" stroke-opacity="0.12"/></pattern></defs>
  <rect width="1600" height="900" fill="#080B12"/>
  <rect width="1600" height="900" fill="url(#g)"/><polyline points="180,814 304,854 428,553 552,449 676,829 800,754 924,424 1048,566 1172,847 1296,662 1420,438" fill="none" stroke="#B8F56A" stroke-width="3" stroke-opacity="0.9"/><circle cx="566" cy="294" r="2.818919338285923" fill="#7DE2D1" opacity="0.6032645740313456"/><circle cx="917" cy="221" r="4.490506867878139" fill="#B8F56A" opacity="0.5499832982430235"/><circle cx="1079" cy="313" r="4.2092320108786225" fill="#B8F56A" opacity="0.5902990957954899"/><circle cx="561" cy="362" r="2.3178624967113137" fill="#7DE2D1" opacity="0.4595420306548476"/><circle cx="823" cy="321" r="5.181472120806575" fill="#B8F56A" opacity="0.37709057989995926"/><circle cx="279" cy="573" r="2.7288830941542983" fill="#B8F56A" opacity="0.6859080484835431"/><circle cx="1256" cy="215" r="5.8697624215856194" fill="#7DE2D1" opacity="0.6584075017133728"/><circle cx="824" cy="610" r="4.080912562087178" fill="#B8F56A" opacity="0.4446578721515834"/><circle cx="871" cy="332" r="3.430432160384953" fill="#B8F56A" opacity="0.35816706689074634"/><circle cx="902" cy="596" r="4.744306614622474" fill="#7DE2D1" opacity="0.6524875515140593"/><circle cx="617" cy="130" r="2.3071566447615623" fill="#B8F56A" opacity="0.7924781330628321"/><circle cx="1211" cy="267" r="5.230605796910822" fill="#B8F56A" opacity="0.4637952944729477"/><circle cx="1279" cy="540" r="4.938016917556524" fill="#7DE2D1" opacity="0.33364139166660606"/><circle cx="361" cy="191" r="3.680860860273242" fill="#B8F56A" opacity="0.42636043736711143"/><circle cx="508" cy="658" r="5.944696168415248" fill="#B8F56A" opacity="0.6111324550118298"/><circle cx="1229" cy="133" r="3.3518778327852488" fill="#7DE2D1" opacity="0.427990098670125"/><circle cx="926" cy="562" r="2.045046852901578" fill="#B8F56A" opacity="0.7543167660012842"/><circle cx="1181" cy="156" r="4.1012406423687935" fill="#B8F56A" opacity="0.41905155319254844"/><circle cx="1005" cy="544" r="2.429965599440038" fill="#7DE2D1" opacity="0.59336511855945"/><circle cx="1287" cy="436" r="4.587456991896033" fill="#B8F56A" opacity="0.3409445968689397"/><circle cx="760" cy="623" r="4.035578981973231" fill="#B8F56A" opacity="0.6043005174258724"/><circle cx="251" cy="405" r="4.9375348491594195" fill="#7DE2D1" opacity="0.3689950498053804"/><circle cx="288" cy="652" r="4.941211989149451" fill="#B8F56A" opacity="0.6565216717543081"/><circle cx="1218" cy="555" r="4.832186079584062" fill="#B8F56A" opacity="0.506410325714387"/><circle cx="1385" cy="295" r="2.6332627795636654" fill="#7DE2D1" opacity="0.30914415484294294"/><circle cx="377" cy="357" r="4.76598416082561" fill="#B8F56A" opacity="0.3390135294292122"/><text x="300" y="182" fill="#9BA6A5" font-size="44" font-family="DM Mono, monospace" opacity="0.5">def </text><text x="490" y="208" fill="#9BA6A5" font-size="44" font-family="DM Mono, monospace" opacity="0.5">()</text><text x="680" y="242" fill="#9BA6A5" font-size="44" font-family="DM Mono, monospace" opacity="0.5">:</text><text x="870" y="142" fill="#9BA6A5" font-size="44" font-family="DM Mono, monospace" opacity="0.5">_</text><text x="1060" y="159" fill="#9BA6A5" font-size="44" font-family="DM Mono, monospace" opacity="0.5">__</text><text x="1250" y="222" fill="#9BA6A5" font-size="44" font-family="DM Mono, monospace" opacity="0.5">-&gt;</text><text x="1440" y="220" fill="#9BA6A5" font-size="44" font-family="DM Mono, monospace" opacity="0.5">.py</text>

<!-- brand mark -->
<g>
  <rect x="86" y="72" width="56" height="56" rx="14" fill="#B8F56A"/>
  <text x="114" y="112" text-anchor="middle" font-family="Space Grotesk, sans-serif" font-size="30" font-weight="700" fill="#080B12">AH</text>
</g>

<!-- category + keyword meta -->
<text x="166" y="100" font-family="DM Mono, monospace" font-size="26" letter-spacing="6" fill="#9BA6A5" font-weight="300">PYTHON / PYTHON LEARNING ROADMAP</text>

<!-- title block -->
<text x="86" y="660" font-family="Space Grotesk, sans-serif" font-size="78" font-weight="700" fill="#F3F6F4" letter-spacing="-2">A</text>
<text x="86" y="756" font-family="Space Grotesk, sans-serif" font-size="78" font-weight="700" fill="#F3F6F4" letter-spacing="-2">Realistic</text>
<text x="86" y="852" font-family="Space Grotesk, sans-serif" font-size="78" font-weight="700" fill="#F3F6F4" letter-spacing="-2">Python</text>
<text x="86" y="948" font-family="Space Grotesk, sans-serif" font-size="78" font-weight="700" fill="#F3F6F4" letter-spacing="-2">Learning</text>
<text x="86" y="1044" font-family="Space Grotesk, sans-serif" font-size="78" font-weight="700" fill="#F3F6F4" letter-spacing="-2">Roadmap<tspan fill="#B8F56A">.</tspan></text>

<!-- footer rule -->
<line x1="86" y1="826" x2="1514" y2="826" stroke="#9BA6A5" stroke-opacity="0.25" stroke-width="1.5"/>
<text x="86" y="862" font-family="DM Mono, monospace" font-size="22" letter-spacing="5" fill="#9BA6A5" font-weight="300">ABDUL HASEEB — DEVELOPER NOTEBOOK</text>
</svg>