<svg xmlns="http://www.w3.org/2000/svg" width="1600" height="900" viewBox="0 0 1600 900">
<defs><pattern id="g" width="80" height="80" patternUnits="userSpaceOnUse"><path d="M 80 0 L 0 0 0 80" fill="none" stroke="#9BA6A5" stroke-opacity="0.12"/></pattern></defs>
  <rect width="1600" height="900" fill="#0A0C18"/>
  <rect width="1600" height="900" fill="url(#g)"/><line x1="1203" y1="476" x2="1286" y2="307" stroke="#9BA6A5" stroke-opacity="0.35" stroke-width="1.5"/><line x1="720" y1="416" x2="578" y2="474" stroke="#9BA6A5" stroke-opacity="0.35" stroke-width="1.5"/><line x1="301" y1="231" x2="823" y2="633" stroke="#9BA6A5" stroke-opacity="0.35" stroke-width="1.5"/><line x1="1286" y1="307" x2="903" y2="270" stroke="#9BA6A5" stroke-opacity="0.35" stroke-width="1.5"/><line x1="578" y1="474" x2="850" y2="467" stroke="#9BA6A5" stroke-opacity="0.35" stroke-width="1.5"/><line x1="823" y1="633" x2="996" y2="548" stroke="#9BA6A5" stroke-opacity="0.35" stroke-width="1.5"/><line x1="903" y1="270" x2="521" y2="530" stroke="#9BA6A5" stroke-opacity="0.35" stroke-width="1.5"/><line x1="850" y1="467" x2="652" y2="437" stroke="#9BA6A5" stroke-opacity="0.35" stroke-width="1.5"/><line x1="996" y1="548" x2="1062" y2="512" stroke="#9BA6A5" stroke-opacity="0.35" stroke-width="1.5"/><line x1="521" y1="530" x2="1334" y2="618" stroke="#9BA6A5" stroke-opacity="0.35" stroke-width="1.5"/><line x1="652" y1="437" x2="803" y2="521" stroke="#9BA6A5" stroke-opacity="0.35" stroke-width="1.5"/><line x1="1062" y1="512" x2="1203" y2="476" stroke="#9BA6A5" stroke-opacity="0.35" stroke-width="1.5"/><line x1="1334" y1="618" x2="720" y2="416" stroke="#9BA6A5" stroke-opacity="0.35" stroke-width="1.5"/><line x1="803" y1="521" x2="301" y2="231" stroke="#9BA6A5" stroke-opacity="0.35" stroke-width="1.5"/><circle cx="1203" cy="476" r="4.261718872701749" fill="none" stroke="#7DE2D1" stroke-width="2" opacity="0.9"/><circle cx="720" cy="416" r="6.228416329016909" fill="none" stroke="#A7B5FF" stroke-width="2" opacity="0.9"/><circle cx="301" cy="231" r="4.485744618112221" fill="none" stroke="#7DE2D1" stroke-width="2" opacity="0.9"/><circle cx="1286" cy="307" r="10.5387374938" fill="none" stroke="#A7B5FF" stroke-width="2" opacity="0.9"/><circle cx="578" cy="474" r="7.0286338839214295" fill="none" stroke="#7DE2D1" stroke-width="2" opacity="0.9"/><circle cx="823" cy="633" r="9.191577589372173" fill="none" stroke="#A7B5FF" stroke-width="2" opacity="0.9"/><circle cx="903" cy="270" r="8.540717429015785" fill="none" stroke="#7DE2D1" stroke-width="2" opacity="0.9"/><circle cx="850" cy="467" r="6.020127007504925" fill="none" stroke="#A7B5FF" stroke-width="2" opacity="0.9"/><circle cx="996" cy="548" r="6.78396597946994" fill="none" stroke="#7DE2D1" stroke-width="2" opacity="0.9"/><circle cx="521" cy="530" r="11.549592447234318" fill="none" stroke="#A7B5FF" stroke-width="2" opacity="0.9"/><circle cx="652" cy="437" r="6.526112037943676" fill="none" stroke="#7DE2D1" stroke-width="2" opacity="0.9"/><circle cx="1062" cy="512" r="9.353820311836898" fill="none" stroke="#A7B5FF" stroke-width="2" opacity="0.9"/><circle cx="1334" cy="618" r="9.47837299364619" fill="none" stroke="#7DE2D1" stroke-width="2" opacity="0.9"/><circle cx="803" cy="521" r="12.666148144984618" fill="none" stroke="#A7B5FF" stroke-width="2" opacity="0.9"/>

<!-- brand mark -->
<g>
  <rect x="86" y="72" width="56" height="56" rx="14" fill="#A7B5FF"/>
  <text x="114" y="112" text-anchor="middle" font-family="Space Grotesk, sans-serif" font-size="30" font-weight="700" fill="#0A0C18">AH</text>
</g>

<!-- category + keyword meta -->
<text x="166" y="100" font-family="DM Mono, monospace" font-size="26" letter-spacing="6" fill="#9BA6A5" font-weight="300">AI ML / SUPERVISED VS UNSUPERVISED LEARNING</text>

<!-- title block -->
<text x="86" y="660" font-family="Space Grotesk, sans-serif" font-size="78" font-weight="700" fill="#F3F6F4" letter-spacing="-2">Supervised</text>
<text x="86" y="756" font-family="Space Grotesk, sans-serif" font-size="78" font-weight="700" fill="#F3F6F4" letter-spacing="-2">vs</text>
<text x="86" y="852" font-family="Space Grotesk, sans-serif" font-size="78" font-weight="700" fill="#F3F6F4" letter-spacing="-2">Unsupervised</text>
<text x="86" y="948" font-family="Space Grotesk, sans-serif" font-size="78" font-weight="700" fill="#F3F6F4" letter-spacing="-2">Learning,</text>
<text x="86" y="1044" font-family="Space Grotesk, sans-serif" font-size="78" font-weight="700" fill="#F3F6F4" letter-spacing="-2">in<tspan fill="#A7B5FF">.</tspan></text>

<!-- footer rule -->
<line x1="86" y1="826" x2="1514" y2="826" stroke="#9BA6A5" stroke-opacity="0.25" stroke-width="1.5"/>
<text x="86" y="862" font-family="DM Mono, monospace" font-size="22" letter-spacing="5" fill="#9BA6A5" font-weight="300">ABDUL HASEEB — DEVELOPER NOTEBOOK</text>
</svg>