<svg xmlns="http://www.w3.org/2000/svg" width="1600" height="900" viewBox="0 0 1600 900">
<defs><pattern id="g" width="80" height="80" patternUnits="userSpaceOnUse"><path d="M 80 0 L 0 0 0 80" fill="none" stroke="#9BA6A5" stroke-opacity="0.12"/></pattern></defs>
  <rect width="1600" height="900" fill="#080B12"/>
  <rect width="1600" height="900" fill="url(#g)"/><line x1="800" y1="150" x2="800" y2="300" stroke="#B8F56A" stroke-width="4" stroke-opacity="0.8"/><line x1="800" y1="300" x2="580" y2="440" stroke="#9BA6A5" stroke-width="2" stroke-opacity="0.8"/><line x1="580" y1="440" x2="470" y2="580" stroke="#9BA6A5" stroke-width="2" stroke-opacity="0.8"/><line x1="470" y1="580" x2="396.6666666666667" y2="720" stroke="#9BA6A5" stroke-width="2" stroke-opacity="0.8"/><circle cx="396.6666666666667" cy="720" r="7" fill="#7DE2D1" opacity="0.9"/><line x1="470" y1="580" x2="543.3333333333334" y2="720" stroke="#9BA6A5" stroke-width="2" stroke-opacity="0.8"/><circle cx="543.3333333333334" cy="720" r="7" fill="#7DE2D1" opacity="0.9"/><line x1="580" y1="440" x2="690" y2="580" stroke="#9BA6A5" stroke-width="2" stroke-opacity="0.8"/><line x1="690" y1="580" x2="616.6666666666666" y2="720" stroke="#9BA6A5" stroke-width="2" stroke-opacity="0.8"/><circle cx="616.6666666666666" cy="720" r="7" fill="#7DE2D1" opacity="0.9"/><line x1="690" y1="580" x2="763.3333333333334" y2="720" stroke="#9BA6A5" stroke-width="2" stroke-opacity="0.8"/><circle cx="763.3333333333334" cy="720" r="7" fill="#7DE2D1" opacity="0.9"/><line x1="800" y1="300" x2="1020" y2="440" stroke="#9BA6A5" stroke-width="2" stroke-opacity="0.8"/><line x1="1020" y1="440" x2="910" y2="580" stroke="#9BA6A5" stroke-width="2" stroke-opacity="0.8"/><line x1="910" y1="580" x2="836.6666666666666" y2="720" stroke="#9BA6A5" stroke-width="2" stroke-opacity="0.8"/><circle cx="836.6666666666666" cy="720" r="7" fill="#7DE2D1" opacity="0.9"/><line x1="910" y1="580" x2="983.3333333333334" y2="720" stroke="#9BA6A5" stroke-width="2" stroke-opacity="0.8"/><circle cx="983.3333333333334" cy="720" r="7" fill="#7DE2D1" opacity="0.9"/><line x1="1020" y1="440" x2="1130" y2="580" stroke="#9BA6A5" stroke-width="2" stroke-opacity="0.8"/><line x1="1130" y1="580" x2="1056.6666666666667" y2="720" stroke="#9BA6A5" stroke-width="2" stroke-opacity="0.8"/><circle cx="1056.6666666666667" cy="720" r="7" fill="#7DE2D1" opacity="0.9"/><line x1="1130" y1="580" x2="1203.3333333333333" y2="720" stroke="#9BA6A5" stroke-width="2" stroke-opacity="0.8"/><circle cx="1203.3333333333333" cy="720" r="7" fill="#7DE2D1" opacity="0.9"/>

<!-- brand mark -->
<g>
  <rect x="86" y="72" width="56" height="56" rx="14" fill="#B8F56A"/>
  <text x="114" y="112" text-anchor="middle" font-family="Space Grotesk, sans-serif" font-size="30" font-weight="700" fill="#080B12">AH</text>
</g>

<!-- category + keyword meta -->
<text x="166" y="100" font-family="DM Mono, monospace" font-size="26" letter-spacing="6" fill="#9BA6A5" font-weight="300">PROBLEM SOLVING / HOW TO THINK LIKE A PROGRAMMER</text>

<!-- title block -->
<text x="86" y="660" font-family="Space Grotesk, sans-serif" font-size="78" font-weight="700" fill="#F3F6F4" letter-spacing="-2">The</text>
<text x="86" y="756" font-family="Space Grotesk, sans-serif" font-size="78" font-weight="700" fill="#F3F6F4" letter-spacing="-2">Problem</text>
<text x="86" y="852" font-family="Space Grotesk, sans-serif" font-size="78" font-weight="700" fill="#F3F6F4" letter-spacing="-2">Before</text>
<text x="86" y="948" font-family="Space Grotesk, sans-serif" font-size="78" font-weight="700" fill="#F3F6F4" letter-spacing="-2">the</text>
<text x="86" y="1044" font-family="Space Grotesk, sans-serif" font-size="78" font-weight="700" fill="#F3F6F4" letter-spacing="-2">Code:<tspan fill="#B8F56A">.</tspan></text>

<!-- footer rule -->
<line x1="86" y1="826" x2="1514" y2="826" stroke="#9BA6A5" stroke-opacity="0.25" stroke-width="1.5"/>
<text x="86" y="862" font-family="DM Mono, monospace" font-size="22" letter-spacing="5" fill="#9BA6A5" font-weight="300">ABDUL HASEEB — DEVELOPER NOTEBOOK</text>
</svg>